<svg width="185" height="94" viewBox="0 0 185 94" fill="none" xmlns="http://www.w3.org/2000/svg">
<path d="M26.8409 42.121V51.5541H18.618C17.5009 51.5541 16.7044 51.7196 16.2287 52.0506C15.7735 52.3816 15.546 52.9401 15.546 53.7262C15.546 54.6158 15.7839 55.2053 16.2597 55.4949C16.7355 55.7639 17.7077 55.8983 19.1765 55.8983H27.6477V68H17.7491C13.0946 68 9.53653 66.8933 7.07482 64.6798C4.61312 62.4456 3.38226 59.2289 3.38226 55.0295V38.4285C3.38226 34.3739 4.54071 31.2295 6.85761 28.9954C9.1952 26.7612 12.474 25.6441 16.6941 25.6441H27.6477V37.8079H19.6109C17.4388 37.8079 16.3528 38.5112 16.3528 39.9179C16.3528 40.7454 16.6114 41.3246 17.1285 41.6556C17.6457 41.9659 18.5662 42.121 19.8902 42.121H26.8409ZM62.8964 68H51.2912V50.5302C51.2912 48.7511 50.5569 47.8616 49.0881 47.8616C47.64 47.8616 46.916 48.7511 46.916 50.5302V68H35.3108V50.7474C35.3108 46.7135 36.6451 43.3209 39.3137 40.5695C41.9823 37.7975 45.2507 36.4115 49.1191 36.4115C53.5461 36.4115 57.0938 38.0147 59.7624 41.2212C61.8517 43.7243 62.8964 47.2099 62.8964 51.6783V68ZM101.372 54.4089H83.7783C83.5094 53.5194 83.3749 52.7022 83.3749 51.9575C83.3749 50.9232 83.5611 49.9096 83.9335 48.9166H89.8292C89.4154 46.6204 88.1225 45.4723 85.9504 45.4723C84.5024 45.4723 83.3232 46.0929 82.413 47.3341C81.5028 48.5546 81.0477 50.1268 81.0477 52.0506C81.0477 54.0572 81.4821 55.6811 82.3509 56.9223C83.2405 58.1635 84.3989 58.7841 85.8263 58.7841C86.9847 58.7841 88.1018 58.2049 89.1775 57.0464L95.7869 64.9901C92.7046 67.4104 89.281 68.6206 85.516 68.6206C80.9236 68.6206 77.0655 67.0794 73.9418 63.9971C70.8182 60.9148 69.2563 57.0982 69.2563 52.5471C69.2563 48.0167 70.8285 44.1897 73.9729 41.066C77.1379 37.9423 81.0167 36.3805 85.6091 36.3805C90.0981 36.3805 93.863 37.9113 96.904 40.9729C99.9656 44.0139 101.496 47.7685 101.496 52.2368C101.496 52.6919 101.455 53.4159 101.372 54.4089Z" fill="white"/>
<mask id="path-2-inside-1_4_41800" fill="white">
<path d="M126.044 37.4976V49.7234C124.409 49.7234 123.282 50.0337 122.661 50.6543C122.061 51.2542 121.679 52.454 121.513 54.2537C120.975 60.2322 118.658 64.4522 114.562 66.914C112.39 68.1965 109.308 68.8378 105.316 68.8378H103.702V56.55H104.23C106.091 56.55 107.415 56.1673 108.201 55.4018C109.008 54.6158 109.474 53.2504 109.598 51.3059C109.763 48.1408 110.053 45.917 110.467 44.6345C110.901 43.3519 111.77 42.0797 113.073 40.8178C115.349 38.6043 118.503 37.4976 122.537 37.4976H126.044ZM148.322 56.3948V68.4034C147.37 68.5689 146.501 68.6516 145.715 68.6516C141.061 68.6516 137.182 67.1208 134.079 64.0592C130.976 60.9976 129.425 57.1602 129.425 52.5471C129.425 48.0581 130.986 44.2518 134.11 41.1281C137.254 38.0044 141.071 36.4426 145.56 36.4426C150.566 36.4426 154.507 37.9113 157.383 40.8488C160.279 43.7656 161.727 47.7581 161.727 52.8264V68H150.122V53.6642C150.122 52.0299 149.718 50.7267 148.911 49.7544C148.125 48.7821 147.06 48.296 145.715 48.296C144.495 48.296 143.44 48.7408 142.55 49.6303C141.661 50.5198 141.216 51.5748 141.216 52.7953C141.216 54.0779 141.619 55.1329 142.426 55.9604C143.233 56.7879 144.257 57.2016 145.498 57.2016C146.512 57.2016 147.453 56.9327 148.322 56.3948ZM181.367 37.0632V68H169.762V37.0632H181.367ZM175.596 23.2548C177.168 23.2548 178.523 23.8134 179.661 24.9305C180.819 26.0269 181.398 27.3301 181.398 28.8402C181.398 30.4538 180.85 31.7777 179.754 32.8121C178.678 33.8464 177.292 34.3636 175.596 34.3636C173.9 34.3636 172.503 33.8464 171.407 32.8121C170.331 31.7777 169.793 30.4538 169.793 28.8402C169.793 27.3301 170.362 26.0269 171.5 24.9305C172.658 23.8134 174.024 23.2548 175.596 23.2548Z"/>
<path d="M103.268 77.3886H184.812V84.029H103.268V77.3886Z"/>
</mask>
<path d="M126.044 37.4976H128.691V34.8497H126.044V37.4976ZM126.044 49.7234V52.3713H128.691V49.7234H126.044ZM121.513 54.2537L118.876 54.0113L118.876 54.0165L121.513 54.2537ZM114.562 66.914L115.909 69.194L115.918 69.1888L115.926 69.1835L114.562 66.914ZM103.702 68.8378H101.054V71.4857H103.702V68.8378ZM103.702 56.55V53.9021H101.054V56.55H103.702ZM108.201 55.4018L110.049 57.299L110.049 57.2983L108.201 55.4018ZM109.598 51.3059L112.24 51.4746L112.241 51.4594L112.242 51.4442L109.598 51.3059ZM110.467 44.6345L107.959 43.785L107.952 43.8032L107.947 43.8216L110.467 44.6345ZM113.073 40.8178L114.915 42.7201L114.919 42.7158L113.073 40.8178ZM126.044 37.4976H123.396V49.7234H126.044H128.691V37.4976H126.044ZM126.044 49.7234V47.0755C124.251 47.0755 122.19 47.3804 120.789 48.7819L122.661 50.6543L124.534 52.5266C124.429 52.6309 124.412 52.5815 124.675 52.5091C124.939 52.4363 125.377 52.3713 126.044 52.3713V49.7234ZM122.661 50.6543L120.789 48.7819C120.08 49.4905 119.664 50.3765 119.402 51.1994C119.133 52.042 118.97 52.9954 118.876 54.0113L121.513 54.2537L124.15 54.4962C124.222 53.7123 124.333 53.1659 124.447 52.8087C124.567 52.4318 124.642 52.418 124.534 52.5266L122.661 50.6543ZM121.513 54.2537L118.876 54.0165C118.392 59.393 116.386 62.7289 113.198 64.6444L114.562 66.914L115.926 69.1835C120.931 66.1756 123.558 61.0714 124.15 54.491L121.513 54.2537ZM114.562 66.914L113.216 64.6339C111.624 65.5741 109.085 66.1899 105.316 66.1899V68.8378V71.4857C109.531 71.4857 113.157 70.819 115.909 69.194L114.562 66.914ZM105.316 68.8378V66.1899H103.702V68.8378V71.4857H105.316V68.8378ZM103.702 68.8378H106.35V56.55H103.702H101.054V68.8378H103.702ZM103.702 56.55V59.1978H104.23V56.55V53.9021H103.702V56.55ZM104.23 56.55V59.1978C106.332 59.1978 108.52 58.7877 110.049 57.299L108.201 55.4018L106.354 53.5047C106.311 53.5468 105.851 53.9021 104.23 53.9021V56.55ZM108.201 55.4018L110.049 57.2983C111.566 55.8205 112.102 53.6358 112.24 51.4746L109.598 51.3059L106.955 51.1372C106.845 52.8651 106.45 53.4111 106.353 53.5054L108.201 55.4018ZM109.598 51.3059L112.242 51.4442C112.407 48.2837 112.689 46.369 112.987 45.4474L110.467 44.6345L107.947 43.8216C107.416 45.465 107.119 47.998 106.953 51.1676L109.598 51.3059ZM110.467 44.6345L112.974 45.4839C113.236 44.7123 113.816 43.7841 114.915 42.7201L113.073 40.8178L111.231 38.9155C109.724 40.3752 108.566 41.9915 107.959 43.785L110.467 44.6345ZM113.073 40.8178L114.919 42.7158C116.576 41.104 118.998 40.1455 122.537 40.1455V37.4976V34.8497C118.009 34.8497 114.121 36.1046 111.227 38.9197L113.073 40.8178ZM122.537 37.4976V40.1455H126.044V37.4976V34.8497H122.537V37.4976ZM148.322 56.3948H150.97V51.6414L146.928 54.1434L148.322 56.3948ZM148.322 68.4034L148.775 71.0121L150.97 70.6305V68.4034H148.322ZM134.11 41.1281L132.244 39.2496L132.238 39.2557L134.11 41.1281ZM157.383 40.8488L155.49 42.7011L155.497 42.7078L155.504 42.7145L157.383 40.8488ZM161.727 68V70.6479H164.375V68H161.727ZM150.122 68H147.474V70.6479H150.122V68ZM148.911 49.7544L146.852 51.4192L146.863 51.4323L146.874 51.4453L148.911 49.7544ZM148.322 56.3948H145.674V68.4034H148.322H150.97V56.3948H148.322ZM148.322 68.4034L147.868 65.7947C147.034 65.9398 146.32 66.0037 145.715 66.0037V68.6516V71.2995C146.683 71.2995 147.707 71.198 148.775 71.0121L148.322 68.4034ZM145.715 68.6516V66.0037C141.705 66.0037 138.51 64.7116 135.939 62.1743L134.079 64.0592L132.219 65.9441C135.854 69.53 140.417 71.2995 145.715 71.2995V68.6516ZM134.079 64.0592L135.939 62.1743C133.372 59.6416 132.072 56.4977 132.072 52.5471H129.425H126.777C126.777 57.8227 128.58 62.3535 132.219 65.9441L134.079 64.0592ZM129.425 52.5471H132.072C132.072 48.7476 133.364 45.6186 135.982 43.0004L134.11 41.1281L132.238 39.2557C128.609 42.8849 126.777 47.3686 126.777 52.5471H129.425ZM134.11 41.1281L135.976 43.0066C138.617 40.3828 141.76 39.0905 145.56 39.0905V36.4426V33.7947C140.382 33.7947 135.891 35.6261 132.244 39.2496L134.11 41.1281ZM145.56 36.4426V39.0905C150.02 39.0905 153.218 40.3798 155.49 42.7011L157.383 40.8488L159.275 38.9966C155.796 35.4428 151.113 33.7947 145.56 33.7947V36.4426ZM157.383 40.8488L155.504 42.7145C157.798 45.0249 159.079 48.2845 159.079 52.8264H161.727H164.375C164.375 47.2318 162.76 42.5063 159.262 38.9831L157.383 40.8488ZM161.727 52.8264H159.079V68H161.727H164.375V52.8264H161.727ZM161.727 68V65.3521H150.122V68V70.6479H161.727V68ZM150.122 68H152.769V53.6642H150.122H147.474V68H150.122ZM150.122 53.6642H152.769C152.769 51.5966 152.254 49.6358 150.949 48.0635L148.911 49.7544L146.874 51.4453C147.183 51.8176 147.474 52.4632 147.474 53.6642H150.122ZM148.911 49.7544L150.97 48.0896C149.64 46.4437 147.79 45.6481 145.715 45.6481V48.296V50.9439C146.329 50.9439 146.611 51.1205 146.852 51.4192L148.911 49.7544ZM145.715 48.296V45.6481C143.769 45.6481 142.047 46.3889 140.678 47.7579L142.55 49.6303L144.423 51.5026C144.833 51.0926 145.221 50.9439 145.715 50.9439V48.296ZM142.55 49.6303L140.678 47.7579C139.309 49.127 138.568 50.8488 138.568 52.7953H141.216H143.864C143.864 52.3008 144.013 51.9126 144.423 51.5026L142.55 49.6303ZM141.216 52.7953H138.568C138.568 54.6858 139.186 56.4306 140.53 57.8089L142.426 55.9604L144.322 54.1119C144.052 53.8352 143.864 53.47 143.864 52.7953H141.216ZM142.426 55.9604L140.53 57.8089C141.875 59.188 143.602 59.8495 145.498 59.8495V57.2016V54.5537C144.912 54.5537 144.591 54.3877 144.322 54.1119L142.426 55.9604ZM145.498 57.2016V59.8495C147.008 59.8495 148.432 59.441 149.716 58.6462L148.322 56.3948L146.928 54.1434C146.474 54.4243 146.015 54.5537 145.498 54.5537V57.2016ZM181.367 37.0632H184.015V34.4153H181.367V37.0632ZM181.367 68V70.6479H184.015V68H181.367ZM169.762 68H167.114V70.6479H169.762V68ZM169.762 37.0632V34.4153H167.114V37.0632H169.762ZM179.661 24.9305L177.806 26.8199L177.823 26.8369L177.841 26.8536L179.661 24.9305ZM179.754 32.8121L177.937 30.886L177.928 30.8946L177.919 30.9034L179.754 32.8121ZM171.407 32.8121L169.572 34.7207L169.581 34.7295L169.59 34.7381L171.407 32.8121ZM171.5 24.9305L173.337 26.8371L173.338 26.8365L171.5 24.9305ZM181.367 37.0632H178.72V68H181.367H184.015V37.0632H181.367ZM181.367 68V65.3521H169.762V68V70.6479H181.367V68ZM169.762 68H172.41V37.0632H169.762H167.114V68H169.762ZM169.762 37.0632V39.711H181.367V37.0632V34.4153H169.762V37.0632ZM175.596 23.2548V25.9027C176.463 25.9027 177.155 26.1812 177.806 26.8199L179.661 24.9305L181.516 23.041C179.891 21.4456 177.873 20.607 175.596 20.607V23.2548ZM179.661 24.9305L177.841 26.8536C178.504 27.4814 178.751 28.1023 178.751 28.8402H181.398H184.046C184.046 26.558 183.134 24.5723 181.481 23.0073L179.661 24.9305ZM181.398 28.8402H178.751C178.751 29.7822 178.463 30.39 177.937 30.886L179.754 32.8121L181.571 34.7381C183.238 33.1654 184.046 31.1254 184.046 28.8402H181.398ZM179.754 32.8121L177.919 30.9034C177.405 31.3976 176.709 31.7157 175.596 31.7157V34.3636V37.0114C177.875 37.0114 179.952 36.2951 181.589 34.7207L179.754 32.8121ZM175.596 34.3636V31.7157C174.483 31.7157 173.766 31.3975 173.224 30.886L171.407 32.8121L169.59 34.7381C171.24 36.2953 173.316 37.0114 175.596 37.0114V34.3636ZM171.407 32.8121L173.242 30.9034C172.731 30.4116 172.441 29.7985 172.441 28.8402H169.793H167.145C167.145 31.109 167.932 33.1439 169.572 34.7207L171.407 32.8121ZM169.793 28.8402H172.441C172.441 28.0859 172.691 27.4603 173.337 26.8371L171.5 24.9305L169.663 23.0238C168.034 24.5934 167.145 26.5744 167.145 28.8402H169.793ZM171.5 24.9305L173.338 26.8365C174.016 26.1828 174.727 25.9027 175.596 25.9027V23.2548V20.607C173.32 20.607 171.301 21.4439 169.662 23.0244L171.5 24.9305Z" fill="white" mask="url(#path-2-inside-1_4_41800)"/>
<path d="M103.268 77.3886V74.7408H100.62V77.3886H103.268ZM184.812 77.3886H187.46V74.7408H184.812V77.3886ZM184.812 84.029V86.6769H187.46V84.029H184.812ZM103.268 84.029H100.62V86.6769H103.268V84.029ZM103.268 77.3886V80.0365H184.812V77.3886V74.7408H103.268V77.3886ZM184.812 77.3886H182.164V84.029H184.812H187.46V77.3886H184.812ZM184.812 84.029V81.3812H103.268V84.029V86.6769H184.812V84.029ZM103.268 84.029H105.915V77.3886H103.268H100.62V84.029H103.268Z" fill="white" mask="url(#path-2-inside-1_4_41800)"/>
</svg>
